# xmcd
#
# Track frame offsets:
#	150
#	20529
#	32493
#	43605
#	55291
#	70045
#	83666
#	102499
#	111215
#	129226
#
# Disc length: 1880 seconds
#
# Revision: 0
# Processed by: cddbd v1.4PL0 Copyright (c) Steve Scherf et al.
# Submitted via: dBpowerAMP V4.0
#
DISCID=7a07560a
DTITLE=Larry Sparks - John Deere Tractor
DYEAR=1900
DGENRE=Bluegrass
TTITLE0=John Deere Tractor
TTITLE1=Girl At The Crossroads Bar
TTITLE2=Hot Sauce
TTITLE3=I'd Rather Be Alone
TTITLE4=Great High Mountain
TTITLE5=Love Of The Mountains
TTITLE6=Making Believe
TTITLE7=Nobody's Business
TTITLE8=When I Lay My Burdens Down
TTITLE9=Carter's Blues
EXTD=
EXTT0=
EXTT1=
EXTT2=
EXTT3=
EXTT4=
EXTT5=
EXTT6=
EXTT7=
EXTT8=
EXTT9=
PLAYORDER=
